<svg id="visual" viewBox="0 0 900 600" width="900" height="600" xmlns="http://www.w3.org/2000/svg" xmlns:xlink="http://www.w3.org/1999/xlink" version="1.1"><g stroke-width="1" stroke-linejoin="bevel"><path d="M443.8 301.7L421 281.3L396.8 354.3Z" fill="#93a8b1" stroke="#93a8b1"></path><path d="M421 281.3L395.5 274.7L396.8 354.3Z" fill="#889da5" stroke="#889da5"></path><path d="M395.5 274.7L376.8 352.8L396.8 354.3Z" fill="#a4b8c4" stroke="#a4b8c4"></path><path d="M459.3 412.4L456 383.4L396.8 354.3Z" fill="#83989f" stroke="#83989f"></path><path d="M396.8 354.3L456 383.4L443.8 301.7Z" fill="#889da5" stroke="#889da5"></path><path d="M456 383.4L475.3 376.8L443.8 301.7Z" fill="#889da5" stroke="#889da5"></path><path d="M369.8 449.4L459.3 412.4L396.8 354.3Z" fill="#9eb3be" stroke="#9eb3be"></path><path d="M456 383.4L459.3 412.4L475.3 376.8Z" fill="#9eb3be" stroke="#9eb3be"></path><path d="M501 228.7L440.8 208.6L421 281.3Z" fill="#99adb8" stroke="#99adb8"></path><path d="M421 281.3L440.8 208.6L395.5 274.7Z" fill="#889da5" stroke="#889da5"></path><path d="M501 228.7L421 281.3L443.8 301.7Z" fill="#99adb8" stroke="#99adb8"></path><path d="M284.3 279.3L296.5 363.3L376.8 352.8Z" fill="#93a8b1" stroke="#93a8b1"></path><path d="M376.8 352.8L369.8 449.4L396.8 354.3Z" fill="#6e8387" stroke="#6e8387"></path><path d="M284.3 279.3L376.8 352.8L395.5 274.7Z" fill="#99adb8" stroke="#99adb8"></path><path d="M561.3 335.3L533.3 302.7L475.3 376.8Z" fill="#93a8b1" stroke="#93a8b1"></path><path d="M475.3 376.8L533.3 302.7L443.8 301.7Z" fill="#6e8387" stroke="#6e8387"></path><path d="M459.3 412.4L485 417.8L475.3 376.8Z" fill="#73888d" stroke="#73888d"></path><path d="M533.3 302.7L501 228.7L443.8 301.7Z" fill="#83989f" stroke="#83989f"></path><path d="M491 192.6L444.8 193.2L440.8 208.6Z" fill="#889da5" stroke="#889da5"></path><path d="M282.3 216.2L284.3 279.3L395.5 274.7Z" fill="#889da5" stroke="#889da5"></path><path d="M282.3 216.2L395.5 274.7L330.5 158.2Z" fill="#a4b8c4" stroke="#a4b8c4"></path><path d="M324.3 452.4L369.8 449.4L376.8 352.8Z" fill="#8da2ab" stroke="#8da2ab"></path><path d="M459.3 412.4L432 465.9L485 417.8Z" fill="#83989f" stroke="#83989f"></path><path d="M234.3 344.8L274 376.3L296.5 363.3Z" fill="#7d9399" stroke="#7d9399"></path><path d="M296.5 363.3L324.3 452.4L376.8 352.8Z" fill="#9eb3be" stroke="#9eb3be"></path><path d="M549.3 198.2L491 192.6L501 228.7Z" fill="#83989f" stroke="#83989f"></path><path d="M501 228.7L491 192.6L440.8 208.6Z" fill="#9eb3be" stroke="#9eb3be"></path><path d="M369.8 449.4L432 465.9L459.3 412.4Z" fill="#6e8387" stroke="#6e8387"></path><path d="M491 192.6L476 181.2L444.8 193.2Z" fill="#788d93" stroke="#788d93"></path><path d="M549.5 418.4L561.3 335.3L475.3 376.8Z" fill="#7d9399" stroke="#7d9399"></path><path d="M586.5 240.7L549.3 198.2L501 228.7Z" fill="#99adb8" stroke="#99adb8"></path><path d="M257 223.6L257.3 281.7L284.3 279.3Z" fill="#83989f" stroke="#83989f"></path><path d="M284.3 279.3L257.3 281.7L296.5 363.3Z" fill="#93a8b1" stroke="#93a8b1"></path><path d="M561.3 335.3L565.5 305.3L533.3 302.7Z" fill="#6e8387" stroke="#6e8387"></path><path d="M277.5 414.8L324.3 452.4L296.5 363.3Z" fill="#73888d" stroke="#73888d"></path><path d="M369.8 449.4L441.8 487.9L432 465.9Z" fill="#6e8387" stroke="#6e8387"></path><path d="M391.8 152.1L440.8 208.6L444.8 193.2Z" fill="#93a8b1" stroke="#93a8b1"></path><path d="M391.8 152.1L395.5 274.7L440.8 208.6Z" fill="#788d93" stroke="#788d93"></path><path d="M261 409.4L277.5 414.8L274 376.3Z" fill="#83989f" stroke="#83989f"></path><path d="M274 376.3L277.5 414.8L296.5 363.3Z" fill="#7d9399" stroke="#7d9399"></path><path d="M464.3 105.1L391.8 152.1L444.8 193.2Z" fill="#73888d" stroke="#73888d"></path><path d="M432 465.9L515.5 451.9L485 417.8Z" fill="#73888d" stroke="#73888d"></path><path d="M485 417.8L549.5 418.4L475.3 376.8Z" fill="#83989f" stroke="#83989f"></path><path d="M515.5 451.9L549.5 418.4L485 417.8Z" fill="#83989f" stroke="#83989f"></path><path d="M561.3 335.3L582.5 327.8L565.5 305.3Z" fill="#a4b8c4" stroke="#a4b8c4"></path><path d="M336.5 489.9L441.8 487.9L369.8 449.4Z" fill="#6e8387" stroke="#6e8387"></path><path d="M432 465.9L441.8 487.9L515.5 451.9Z" fill="#9eb3be" stroke="#9eb3be"></path><path d="M234.3 344.8L261 409.4L274 376.3Z" fill="#93a8b1" stroke="#93a8b1"></path><path d="M277.5 414.8L277.5 449.4L324.3 452.4Z" fill="#99adb8" stroke="#99adb8"></path><path d="M612.8 417.4L582.5 327.8L561.3 335.3Z" fill="#7d9399" stroke="#7d9399"></path><path d="M586.5 240.7L501 228.7L533.3 302.7Z" fill="#889da5" stroke="#889da5"></path><path d="M257.3 281.7L234.3 344.8L296.5 363.3Z" fill="#a4b8c4" stroke="#a4b8c4"></path><path d="M391.8 152.1L330.5 158.2L395.5 274.7Z" fill="#8da2ab" stroke="#8da2ab"></path><path d="M247 195.2L257 223.6L282.3 216.2Z" fill="#7d9399" stroke="#7d9399"></path><path d="M282.3 216.2L257 223.6L284.3 279.3Z" fill="#788d93" stroke="#788d93"></path><path d="M257.3 281.7L220 321.8L234.3 344.8Z" fill="#99adb8" stroke="#99adb8"></path><path d="M226.8 247.7L228 290.7L257.3 281.7Z" fill="#8da2ab" stroke="#8da2ab"></path><path d="M586.5 240.7L533.3 302.7L565.5 305.3Z" fill="#83989f" stroke="#83989f"></path><path d="M491 192.6L498.3 142.6L476 181.2Z" fill="#83989f" stroke="#83989f"></path><path d="M407 76.1L362.5 128.6L391.8 152.1Z" fill="#9eb3be" stroke="#9eb3be"></path><path d="M276 487.9L277.5 449.4L253.3 481.9Z" fill="#a4b8c4" stroke="#a4b8c4"></path><path d="M261 409.4L277.5 449.4L277.5 414.8Z" fill="#73888d" stroke="#73888d"></path><path d="M324.3 452.4L336.5 489.9L369.8 449.4Z" fill="#99adb8" stroke="#99adb8"></path><path d="M334.5 495.5L336.5 489.9L276 487.9Z" fill="#889da5" stroke="#889da5"></path><path d="M391.8 152.1L338.3 144.1L330.5 158.2Z" fill="#83989f" stroke="#83989f"></path><path d="M245.3 185.6L247 195.2L282.3 216.2Z" fill="#788d93" stroke="#788d93"></path><path d="M228 290.7L220 321.8L257.3 281.7Z" fill="#93a8b1" stroke="#93a8b1"></path><path d="M193.8 437.4L277.5 449.4L261 409.4Z" fill="#6e8387" stroke="#6e8387"></path><path d="M549.3 198.2L539.5 177.6L491 192.6Z" fill="#788d93" stroke="#788d93"></path><path d="M276 487.9L336.5 489.9L324.3 452.4Z" fill="#8da2ab" stroke="#8da2ab"></path><path d="M336.5 489.9L425.8 551.5L441.8 487.9Z" fill="#7d9399" stroke="#7d9399"></path><path d="M641.8 300.3L586.5 240.7L565.5 305.3Z" fill="#73888d" stroke="#73888d"></path><path d="M549.3 198.2L606.8 156.1L539.5 177.6Z" fill="#83989f" stroke="#83989f"></path><path d="M464.3 105.1L444.8 193.2L476 181.2Z" fill="#8da2ab" stroke="#8da2ab"></path><path d="M391.8 152.1L362.5 128.6L338.3 144.1Z" fill="#93a8b1" stroke="#93a8b1"></path><path d="M247 195.2L226.8 247.7L257 223.6Z" fill="#99adb8" stroke="#99adb8"></path><path d="M257 223.6L226.8 247.7L257.3 281.7Z" fill="#99adb8" stroke="#99adb8"></path><path d="M228 290.7L145.8 274.3L220 321.8Z" fill="#9eb3be" stroke="#9eb3be"></path><path d="M539.5 177.6L498.3 142.6L491 192.6Z" fill="#8da2ab" stroke="#8da2ab"></path><path d="M425.8 551.5L478.3 507.9L441.8 487.9Z" fill="#9eb3be" stroke="#9eb3be"></path><path d="M441.8 487.9L478.3 507.9L515.5 451.9Z" fill="#99adb8" stroke="#99adb8"></path><path d="M515.5 451.9L579.8 489.9L549.5 418.4Z" fill="#7d9399" stroke="#7d9399"></path><path d="M245.3 185.6L282.3 216.2L330.5 158.2Z" fill="#889da5" stroke="#889da5"></path><path d="M323.5 130.1L330.5 158.2L338.3 144.1Z" fill="#99adb8" stroke="#99adb8"></path><path d="M362.5 128.6L323.5 130.1L338.3 144.1Z" fill="#889da5" stroke="#889da5"></path><path d="M323.5 130.1L245.3 185.6L330.5 158.2Z" fill="#73888d" stroke="#73888d"></path><path d="M247 195.2L225.8 185.2L226.8 247.7Z" fill="#a4b8c4" stroke="#a4b8c4"></path><path d="M277.5 449.4L276 487.9L324.3 452.4Z" fill="#83989f" stroke="#83989f"></path><path d="M253.3 481.9L277.5 449.4L193.8 437.4Z" fill="#83989f" stroke="#83989f"></path><path d="M478.3 507.9L514.5 509.5L515.5 451.9Z" fill="#6e8387" stroke="#6e8387"></path><path d="M550.5 55.5L464.3 105.1L498.3 142.6Z" fill="#788d93" stroke="#788d93"></path><path d="M498.3 142.6L464.3 105.1L476 181.2Z" fill="#8da2ab" stroke="#8da2ab"></path><path d="M362.5 128.6L297.3 43.5L323.5 130.1Z" fill="#99adb8" stroke="#99adb8"></path><path d="M212 129.1L225.8 185.2L245.3 185.6Z" fill="#73888d" stroke="#73888d"></path><path d="M245.3 185.6L225.8 185.2L247 195.2Z" fill="#a4b8c4" stroke="#a4b8c4"></path><path d="M226.8 247.7L145.8 274.3L228 290.7Z" fill="#73888d" stroke="#73888d"></path><path d="M193.8 437.4L261 409.4L234.3 344.8Z" fill="#99adb8" stroke="#99adb8"></path><path d="M579.8 489.9L612.8 417.4L549.5 418.4Z" fill="#7d9399" stroke="#7d9399"></path><path d="M549.5 418.4L612.8 417.4L561.3 335.3Z" fill="#a4b8c4" stroke="#a4b8c4"></path><path d="M641.8 300.3L614.8 217.6L586.5 240.7Z" fill="#a4b8c4" stroke="#a4b8c4"></path><path d="M641.8 300.3L565.5 305.3L582.5 327.8Z" fill="#83989f" stroke="#83989f"></path><path d="M586.5 240.7L614.8 217.6L549.3 198.2Z" fill="#83989f" stroke="#83989f"></path><path d="M596.8 72.5L550.5 55.5L498.3 142.6Z" fill="#6e8387" stroke="#6e8387"></path><path d="M638.8 365.8L641.8 300.3L582.5 327.8Z" fill="#a4b8c4" stroke="#a4b8c4"></path><path d="M334.5 495.5L425.8 551.5L336.5 489.9Z" fill="#a4b8c4" stroke="#a4b8c4"></path><path d="M491 541.5L532.3 518.5L514.5 509.5Z" fill="#73888d" stroke="#73888d"></path><path d="M303.3 552.5L425.8 551.5L334.5 495.5Z" fill="#73888d" stroke="#73888d"></path><path d="M303.3 552.5L334.5 495.5L276 487.9Z" fill="#788d93" stroke="#788d93"></path><path d="M612.8 417.4L638.8 365.8L582.5 327.8Z" fill="#9eb3be" stroke="#9eb3be"></path><path d="M491 541.5L514.5 509.5L478.3 507.9Z" fill="#7d9399" stroke="#7d9399"></path><path d="M514.5 509.5L532.3 518.5L515.5 451.9Z" fill="#7d9399" stroke="#7d9399"></path><path d="M425.8 551.5L491 541.5L478.3 507.9Z" fill="#99adb8" stroke="#99adb8"></path><path d="M464.3 105.1L407 76.1L391.8 152.1Z" fill="#788d93" stroke="#788d93"></path><path d="M323.5 130.1L212 129.1L245.3 185.6Z" fill="#73888d" stroke="#73888d"></path><path d="M532.3 518.5L579.8 489.9L515.5 451.9Z" fill="#8da2ab" stroke="#8da2ab"></path><path d="M685 352.8L671 314.3L638.8 365.8Z" fill="#889da5" stroke="#889da5"></path><path d="M647.8 214.2L613.5 183.2L614.8 217.6Z" fill="#6e8387" stroke="#6e8387"></path><path d="M614.8 217.6L613.5 183.2L549.3 198.2Z" fill="#99adb8" stroke="#99adb8"></path><path d="M126.5 379.4L193.8 437.4L234.3 344.8Z" fill="#83989f" stroke="#83989f"></path><path d="M126.5 379.4L234.3 344.8L220 321.8Z" fill="#788d93" stroke="#788d93"></path><path d="M613.5 183.2L606.8 156.1L549.3 198.2Z" fill="#93a8b1" stroke="#93a8b1"></path><path d="M464.3 105.1L432 61.5L407 76.1Z" fill="#788d93" stroke="#788d93"></path><path d="M503 0L432 61.5L464.3 105.1Z" fill="#73888d" stroke="#73888d"></path><path d="M318.5 600L303.3 552.5L253.3 600Z" fill="#83989f" stroke="#83989f"></path><path d="M253.3 481.9L303.3 552.5L276 487.9Z" fill="#788d93" stroke="#788d93"></path><path d="M670.8 232.7L647.8 214.2L614.8 217.6Z" fill="#788d93" stroke="#788d93"></path><path d="M613.5 183.2L672.3 172.6L606.8 156.1Z" fill="#788d93" stroke="#788d93"></path><path d="M670.8 232.7L614.8 217.6L641.8 300.3Z" fill="#7d9399" stroke="#7d9399"></path><path d="M666 400.4L638.8 365.8L612.8 417.4Z" fill="#8da2ab" stroke="#8da2ab"></path><path d="M638.8 365.8L671 314.3L641.8 300.3Z" fill="#889da5" stroke="#889da5"></path><path d="M135.5 221.2L145.8 274.3L226.8 247.7Z" fill="#8da2ab" stroke="#8da2ab"></path><path d="M670 493.9L666 400.4L612.8 417.4Z" fill="#889da5" stroke="#889da5"></path><path d="M297.3 43.5L212 129.1L323.5 130.1Z" fill="#99adb8" stroke="#99adb8"></path><path d="M225.8 185.2L135.5 221.2L226.8 247.7Z" fill="#9eb3be" stroke="#9eb3be"></path><path d="M297.3 43.5L362.5 128.6L330.5 21.5Z" fill="#889da5" stroke="#889da5"></path><path d="M666 400.4L673.3 392.8L638.8 365.8Z" fill="#788d93" stroke="#788d93"></path><path d="M671 314.3L670.8 232.7L641.8 300.3Z" fill="#8da2ab" stroke="#8da2ab"></path><path d="M647.8 214.2L672.3 172.6L613.5 183.2Z" fill="#9eb3be" stroke="#9eb3be"></path><path d="M688.3 211.7L670.8 232.7L717 205.2Z" fill="#a4b8c4" stroke="#a4b8c4"></path><path d="M673.3 392.8L685 352.8L638.8 365.8Z" fill="#889da5" stroke="#889da5"></path><path d="M318.5 600L424 600L425.8 551.5Z" fill="#9eb3be" stroke="#9eb3be"></path><path d="M425.8 551.5L464.3 600L491 541.5Z" fill="#9eb3be" stroke="#9eb3be"></path><path d="M491 541.5L566.8 582.5L532.3 518.5Z" fill="#99adb8" stroke="#99adb8"></path><path d="M532.3 518.5L566.8 582.5L579.8 489.9Z" fill="#889da5" stroke="#889da5"></path><path d="M424 600L443.8 600L425.8 551.5Z" fill="#788d93" stroke="#788d93"></path><path d="M443.8 600L464.3 600L425.8 551.5Z" fill="#a4b8c4" stroke="#a4b8c4"></path><path d="M145.8 274.3L126.5 379.4L220 321.8Z" fill="#7d9399" stroke="#7d9399"></path><path d="M253.3 600L303.3 552.5L253.3 481.9Z" fill="#9eb3be" stroke="#9eb3be"></path><path d="M157.8 169.6L135.5 221.2L225.8 185.2Z" fill="#83989f" stroke="#83989f"></path><path d="M69.5 353.8L118.8 392.8L126.5 379.4Z" fill="#83989f" stroke="#83989f"></path><path d="M212 129.1L157.8 169.6L225.8 185.2Z" fill="#83989f" stroke="#83989f"></path><path d="M330.5 21.5L362.5 128.6L407 76.1Z" fill="#83989f" stroke="#83989f"></path><path d="M169 88.5L140.8 168.1L157.8 169.6Z" fill="#7d9399" stroke="#7d9399"></path><path d="M167 494.5L253.3 481.9L193.8 437.4Z" fill="#788d93" stroke="#788d93"></path><path d="M303.3 552.5L318.5 600L425.8 551.5Z" fill="#8da2ab" stroke="#8da2ab"></path><path d="M596.8 72.5L539.5 177.6L606.8 156.1Z" fill="#9eb3be" stroke="#9eb3be"></path><path d="M596.8 72.5L498.3 142.6L539.5 177.6Z" fill="#788d93" stroke="#788d93"></path><path d="M383.8 0L330.5 21.5L407 76.1Z" fill="#83989f" stroke="#83989f"></path><path d="M715.3 306.3L670.8 232.7L671 314.3Z" fill="#93a8b1" stroke="#93a8b1"></path><path d="M670.8 232.7L688.3 211.7L647.8 214.2Z" fill="#7d9399" stroke="#7d9399"></path><path d="M139.5 501.9L167 494.5L193.8 437.4Z" fill="#a4b8c4" stroke="#a4b8c4"></path><path d="M92.5 321.3L126.5 379.4L145.8 274.3Z" fill="#99adb8" stroke="#99adb8"></path><path d="M126.5 379.4L118.8 392.8L193.8 437.4Z" fill="#6e8387" stroke="#6e8387"></path><path d="M688.3 211.7L672.3 172.6L647.8 214.2Z" fill="#93a8b1" stroke="#93a8b1"></path><path d="M672.3 172.6L620.5 102.1L606.8 156.1Z" fill="#7d9399" stroke="#7d9399"></path><path d="M765.5 358.3L713 317.7L685 352.8Z" fill="#a4b8c4" stroke="#a4b8c4"></path><path d="M685 352.8L713 317.7L671 314.3Z" fill="#93a8b1" stroke="#93a8b1"></path><path d="M383.8 0L407 76.1L432 61.5Z" fill="#99adb8" stroke="#99adb8"></path><path d="M713 317.7L715.3 306.3L671 314.3Z" fill="#7d9399" stroke="#7d9399"></path><path d="M169 88.5L157.8 169.6L212 129.1Z" fill="#788d93" stroke="#788d93"></path><path d="M157.8 169.6L140.8 168.1L135.5 221.2Z" fill="#9eb3be" stroke="#9eb3be"></path><path d="M464.3 600L566.8 582.5L491 541.5Z" fill="#6e8387" stroke="#6e8387"></path><path d="M579.8 489.9L670 493.9L612.8 417.4Z" fill="#7d9399" stroke="#7d9399"></path><path d="M666 400.4L725.3 496.9L673.3 392.8Z" fill="#889da5" stroke="#889da5"></path><path d="M459.3 -2.5L438.8 10.5L432 61.5Z" fill="#889da5" stroke="#889da5"></path><path d="M620.5 102.1L596.8 72.5L606.8 156.1Z" fill="#93a8b1" stroke="#93a8b1"></path><path d="M503 0L459.3 -2.5L432 61.5Z" fill="#99adb8" stroke="#99adb8"></path><path d="M102.5 219.6L111.3 229.7L135.5 221.2Z" fill="#6e8387" stroke="#6e8387"></path><path d="M135.5 221.2L111.3 229.7L145.8 274.3Z" fill="#a4b8c4" stroke="#a4b8c4"></path><path d="M658 559.5L670 493.9L579.8 489.9Z" fill="#9eb3be" stroke="#9eb3be"></path><path d="M673.3 392.8L765.5 358.3L685 352.8Z" fill="#83989f" stroke="#83989f"></path><path d="M68.3 275.2L92.5 321.3L145.8 274.3Z" fill="#99adb8" stroke="#99adb8"></path><path d="M438.8 10.5L383.8 0L432 61.5Z" fill="#788d93" stroke="#788d93"></path><path d="M110.3 194.6L102.5 219.6L135.5 221.2Z" fill="#788d93" stroke="#788d93"></path><path d="M111.3 229.7L68.3 275.2L145.8 274.3Z" fill="#93a8b1" stroke="#93a8b1"></path><path d="M383.8 0L357.5 0L330.5 21.5Z" fill="#83989f" stroke="#83989f"></path><path d="M227 0L212 129.1L297.3 43.5Z" fill="#73888d" stroke="#73888d"></path><path d="M219.8 600L253.3 600L253.3 481.9Z" fill="#889da5" stroke="#889da5"></path><path d="M140.8 168.1L110.3 194.6L135.5 221.2Z" fill="#788d93" stroke="#788d93"></path><path d="M503 0L464.3 105.1L550.5 55.5Z" fill="#788d93" stroke="#788d93"></path><path d="M438.8 10.5L459.3 -2.5L383.8 0Z" fill="#73888d" stroke="#73888d"></path><path d="M383.8 0L459.3 -2.5L357.5 0Z" fill="#a4b8c4" stroke="#a4b8c4"></path><path d="M118.8 392.8L139.5 501.9L193.8 437.4Z" fill="#83989f" stroke="#83989f"></path><path d="M167 494.5L219.8 600L253.3 481.9Z" fill="#93a8b1" stroke="#93a8b1"></path><path d="M77.3 415.4L139.5 501.9L118.8 392.8Z" fill="#83989f" stroke="#83989f"></path><path d="M688.3 211.7L717.3 178.2L672.3 172.6Z" fill="#83989f" stroke="#83989f"></path><path d="M672.3 172.6L677 89.1L620.5 102.1Z" fill="#93a8b1" stroke="#93a8b1"></path><path d="M620.5 102.1L662 64.5L596.8 72.5Z" fill="#8da2ab" stroke="#8da2ab"></path><path d="M715.3 306.3L717 205.2L670.8 232.7Z" fill="#99adb8" stroke="#99adb8"></path><path d="M528.3 0L503 0L550.5 55.5Z" fill="#83989f" stroke="#83989f"></path><path d="M227 0L169 88.5L212 129.1Z" fill="#889da5" stroke="#889da5"></path><path d="M140.8 168.1L88.3 167.1L110.3 194.6Z" fill="#788d93" stroke="#788d93"></path><path d="M262.3 0L297.3 43.5L330.5 21.5Z" fill="#73888d" stroke="#73888d"></path><path d="M139.5 501.9L151.8 527.9L167 494.5Z" fill="#73888d" stroke="#73888d"></path><path d="M717 205.2L717.3 178.2L688.3 211.7Z" fill="#8da2ab" stroke="#8da2ab"></path><path d="M658 559.5L697.3 496.4L670 493.9Z" fill="#83989f" stroke="#83989f"></path><path d="M670 493.9L697.3 496.4L666 400.4Z" fill="#6e8387" stroke="#6e8387"></path><path d="M713 317.7L765.5 358.3L715.3 306.3Z" fill="#9eb3be" stroke="#9eb3be"></path><path d="M613.5 0L528.3 0L550.5 55.5Z" fill="#99adb8" stroke="#99adb8"></path><path d="M503 0L528.3 0L459.3 -2.5Z" fill="#83989f" stroke="#83989f"></path><path d="M613.5 0L550.5 55.5L596.8 72.5Z" fill="#73888d" stroke="#73888d"></path><path d="M151.8 527.9L219.8 600L167 494.5Z" fill="#a4b8c4" stroke="#a4b8c4"></path><path d="M64.5 318.7L69.5 353.8L92.5 321.3Z" fill="#73888d" stroke="#73888d"></path><path d="M92.5 321.3L69.5 353.8L126.5 379.4Z" fill="#73888d" stroke="#73888d"></path><path d="M140.8 571.5L157.5 564.5L151.8 527.9Z" fill="#788d93" stroke="#788d93"></path><path d="M15.3 267.3L68.3 275.2L0 235.2Z" fill="#788d93" stroke="#788d93"></path><path d="M102.5 219.6L68.3 275.2L111.3 229.7Z" fill="#a4b8c4" stroke="#a4b8c4"></path><path d="M68.3 275.2L64.5 318.7L92.5 321.3Z" fill="#73888d" stroke="#73888d"></path><path d="M151.8 527.9L210 600L219.8 600Z" fill="#6e8387" stroke="#6e8387"></path><path d="M52.3 365.8L77.3 415.4L69.5 353.8Z" fill="#a4b8c4" stroke="#a4b8c4"></path><path d="M69.5 353.8L77.3 415.4L118.8 392.8Z" fill="#73888d" stroke="#73888d"></path><path d="M464.3 600L608.5 600L566.8 582.5Z" fill="#9eb3be" stroke="#9eb3be"></path><path d="M566.8 582.5L658 559.5L579.8 489.9Z" fill="#99adb8" stroke="#99adb8"></path><path d="M608.5 600L658 559.5L566.8 582.5Z" fill="#6e8387" stroke="#6e8387"></path><path d="M459.3 -2.5L262.3 0L357.5 0Z" fill="#73888d" stroke="#73888d"></path><path d="M357.5 0L262.3 0L330.5 21.5Z" fill="#73888d" stroke="#73888d"></path><path d="M140.8 571.5L151.8 527.9L69.3 498.5Z" fill="#83989f" stroke="#83989f"></path><path d="M151.8 527.9L157.5 564.5L210 600Z" fill="#8da2ab" stroke="#8da2ab"></path><path d="M732 122.6L677 89.1L672.3 172.6Z" fill="#93a8b1" stroke="#93a8b1"></path><path d="M169 88.5L88.3 167.1L140.8 168.1Z" fill="#93a8b1" stroke="#93a8b1"></path><path d="M110.3 194.6L88.3 167.1L102.5 219.6Z" fill="#73888d" stroke="#73888d"></path><path d="M677 89.1L662 64.5L620.5 102.1Z" fill="#83989f" stroke="#83989f"></path><path d="M786.5 418.8L765.5 358.3L673.3 392.8Z" fill="#889da5" stroke="#889da5"></path><path d="M715.3 306.3L772.5 246.2L717 205.2Z" fill="#93a8b1" stroke="#93a8b1"></path><path d="M717 205.2L798.5 195.6L717.3 178.2Z" fill="#7d9399" stroke="#7d9399"></path><path d="M64.5 318.7L52.3 365.8L69.5 353.8Z" fill="#7d9399" stroke="#7d9399"></path><path d="M0 335.3L52.3 365.8L64.5 318.7Z" fill="#a4b8c4" stroke="#a4b8c4"></path><path d="M721.3 523.5L725.3 496.9L697.3 496.4Z" fill="#9eb3be" stroke="#9eb3be"></path><path d="M697.3 496.4L725.3 496.9L666 400.4Z" fill="#7d9399" stroke="#7d9399"></path><path d="M459.3 -2.5L227 0L262.3 0Z" fill="#788d93" stroke="#788d93"></path><path d="M262.3 0L227 0L297.3 43.5Z" fill="#73888d" stroke="#73888d"></path><path d="M169 88.5L58.5 81.1L88.3 167.1Z" fill="#9eb3be" stroke="#9eb3be"></path><path d="M69.3 498.5L151.8 527.9L139.5 501.9Z" fill="#788d93" stroke="#788d93"></path><path d="M157.5 564.5L140.8 571.5L210 600Z" fill="#788d93" stroke="#788d93"></path><path d="M69.3 498.5L139.5 501.9L77.3 415.4Z" fill="#7d9399" stroke="#7d9399"></path><path d="M765.5 358.3L772.5 246.2L715.3 306.3Z" fill="#93a8b1" stroke="#93a8b1"></path><path d="M717.3 178.2L732 122.6L672.3 172.6Z" fill="#99adb8" stroke="#99adb8"></path><path d="M608.5 600L651.8 600L658 559.5Z" fill="#9eb3be" stroke="#9eb3be"></path><path d="M658 559.5L721.3 523.5L697.3 496.4Z" fill="#a4b8c4" stroke="#a4b8c4"></path><path d="M720.3 600L721.3 523.5L658 559.5Z" fill="#83989f" stroke="#83989f"></path><path d="M725.3 496.9L786.5 418.8L673.3 392.8Z" fill="#6e8387" stroke="#6e8387"></path><path d="M748.3 138.1L732 122.6L717.3 178.2Z" fill="#9eb3be" stroke="#9eb3be"></path><path d="M677.8 0L670.3 0L662 64.5Z" fill="#889da5" stroke="#889da5"></path><path d="M670.3 0L613.5 0L662 64.5Z" fill="#93a8b1" stroke="#93a8b1"></path><path d="M662 64.5L613.5 0L596.8 72.5Z" fill="#889da5" stroke="#889da5"></path><path d="M528.3 0L613.5 0L459.3 -2.5Z" fill="#6e8387" stroke="#6e8387"></path><path d="M798.5 195.6L748.3 138.1L717.3 178.2Z" fill="#73888d" stroke="#73888d"></path><path d="M677.8 0L662 64.5L686 0Z" fill="#6e8387" stroke="#6e8387"></path><path d="M651.8 600L670 600L658 559.5Z" fill="#788d93" stroke="#788d93"></path><path d="M0 434.9L69.3 498.5L77.3 415.4Z" fill="#83989f" stroke="#83989f"></path><path d="M742.5 600L746.5 508.5L721.3 523.5Z" fill="#a4b8c4" stroke="#a4b8c4"></path><path d="M721.3 523.5L746.5 508.5L725.3 496.9Z" fill="#7d9399" stroke="#7d9399"></path><path d="M459.3 -2.5L182.8 0L227 0Z" fill="#99adb8" stroke="#99adb8"></path><path d="M227 0L182.8 0L169 88.5Z" fill="#93a8b1" stroke="#93a8b1"></path><path d="M746.5 508.5L786.5 418.8L725.3 496.9Z" fill="#73888d" stroke="#73888d"></path><path d="M824.5 257.7L798.5 195.6L772.5 246.2Z" fill="#8da2ab" stroke="#8da2ab"></path><path d="M182.8 0L166.8 8.5L169 88.5Z" fill="#788d93" stroke="#788d93"></path><path d="M0 235.2L68.3 275.2L102.5 219.6Z" fill="#99adb8" stroke="#99adb8"></path><path d="M68.3 275.2L15.3 267.3L64.5 318.7Z" fill="#7d9399" stroke="#7d9399"></path><path d="M52.3 365.8L0 385.4L77.3 415.4Z" fill="#6e8387" stroke="#6e8387"></path><path d="M0 235.2L102.5 219.6L88.3 167.1Z" fill="#889da5" stroke="#889da5"></path><path d="M824.5 257.7L772.5 246.2L765.5 358.3Z" fill="#83989f" stroke="#83989f"></path><path d="M772.5 246.2L798.5 195.6L717 205.2Z" fill="#99adb8" stroke="#99adb8"></path><path d="M15.3 267.3L0 301.7L64.5 318.7Z" fill="#73888d" stroke="#73888d"></path><path d="M0 301.7L0 335.3L64.5 318.7Z" fill="#93a8b1" stroke="#93a8b1"></path><path d="M830.5 422.4L812.8 395.4L786.5 418.8Z" fill="#889da5" stroke="#889da5"></path><path d="M786.5 418.8L812.8 395.4L765.5 358.3Z" fill="#8da2ab" stroke="#8da2ab"></path><path d="M0 335.3L0 363.8L52.3 365.8Z" fill="#93a8b1" stroke="#93a8b1"></path><path d="M662 64.5L743.3 24.5L686 0Z" fill="#73888d" stroke="#73888d"></path><path d="M613.5 0L900 -5.5L459.3 -2.5Z" fill="#889da5" stroke="#889da5"></path><path d="M677 89.1L743.3 24.5L662 64.5Z" fill="#a4b8c4" stroke="#a4b8c4"></path><path d="M0 434.9L50.3 524.9L69.3 498.5Z" fill="#6e8387" stroke="#6e8387"></path><path d="M69.3 498.5L50.3 524.9L140.8 571.5Z" fill="#99adb8" stroke="#99adb8"></path><path d="M0 363.8L0 385.4L52.3 365.8Z" fill="#788d93" stroke="#788d93"></path><path d="M677 89.1L732 122.6L771.5 60.5Z" fill="#83989f" stroke="#83989f"></path><path d="M670.3 0L900 -5.5L613.5 0Z" fill="#83989f" stroke="#83989f"></path><path d="M15.3 267.3L0 235.2L0 301.7Z" fill="#83989f" stroke="#83989f"></path><path d="M0 165.6L0 235.2L88.3 167.1Z" fill="#788d93" stroke="#788d93"></path><path d="M812.8 395.4L824.5 257.7L765.5 358.3Z" fill="#99adb8" stroke="#99adb8"></path><path d="M670 600L720.3 600L658 559.5Z" fill="#8da2ab" stroke="#8da2ab"></path><path d="M839.5 472.9L830.5 422.4L786.5 418.8Z" fill="#6e8387" stroke="#6e8387"></path><path d="M794.8 103.5L732 122.6L748.3 138.1Z" fill="#8da2ab" stroke="#8da2ab"></path><path d="M677.8 0L900 -5.5L670.3 0Z" fill="#788d93" stroke="#788d93"></path><path d="M814.8 158.6L787.5 131.1L798.5 195.6Z" fill="#a4b8c4" stroke="#a4b8c4"></path><path d="M798.5 195.6L787.5 131.1L748.3 138.1Z" fill="#83989f" stroke="#83989f"></path><path d="M50.3 524.9L94.5 600L140.8 571.5Z" fill="#788d93" stroke="#788d93"></path><path d="M140.8 571.5L94.5 600L210 600Z" fill="#8da2ab" stroke="#8da2ab"></path><path d="M107.5 3.5L58.5 81.1L169 88.5Z" fill="#99adb8" stroke="#99adb8"></path><path d="M0 385.4L0 434.9L77.3 415.4Z" fill="#73888d" stroke="#73888d"></path><path d="M796.8 522.5L786.5 418.8L746.5 508.5Z" fill="#788d93" stroke="#788d93"></path><path d="M900 256.7L856.8 229.7L824.5 257.7Z" fill="#889da5" stroke="#889da5"></path><path d="M166.8 8.5L107.5 3.5L169 88.5Z" fill="#7d9399" stroke="#7d9399"></path><path d="M182.8 0L107.5 3.5L166.8 8.5Z" fill="#73888d" stroke="#73888d"></path><path d="M849.8 210.2L814.8 158.6L798.5 195.6Z" fill="#788d93" stroke="#788d93"></path><path d="M787.5 131.1L794.8 103.5L748.3 138.1Z" fill="#788d93" stroke="#788d93"></path><path d="M0 141.1L88.3 167.1L58.5 81.1Z" fill="#8da2ab" stroke="#8da2ab"></path><path d="M0 141.1L0 165.6L88.3 167.1Z" fill="#7d9399" stroke="#7d9399"></path><path d="M720.3 600L742.5 600L721.3 523.5Z" fill="#7d9399" stroke="#7d9399"></path><path d="M742.5 600L796.8 522.5L746.5 508.5Z" fill="#73888d" stroke="#73888d"></path><path d="M814.8 158.6L794.8 103.5L787.5 131.1Z" fill="#99adb8" stroke="#99adb8"></path><path d="M794.8 103.5L771.5 60.5L732 122.6Z" fill="#83989f" stroke="#83989f"></path><path d="M771.5 60.5L743.3 24.5L677 89.1Z" fill="#a4b8c4" stroke="#a4b8c4"></path><path d="M1.3 24.5L0 141.1L58.5 81.1Z" fill="#7d9399" stroke="#7d9399"></path><path d="M822.8 0L728.5 0L743.3 24.5Z" fill="#6e8387" stroke="#6e8387"></path><path d="M743.3 24.5L728.5 0L686 0Z" fill="#7d9399" stroke="#7d9399"></path><path d="M686 0L900 -5.5L677.8 0Z" fill="#788d93" stroke="#788d93"></path><path d="M814.8 158.6L853.8 77.1L794.8 103.5Z" fill="#7d9399" stroke="#7d9399"></path><path d="M824.5 257.7L849.8 210.2L798.5 195.6Z" fill="#7d9399" stroke="#7d9399"></path><path d="M856.8 229.7L849.8 210.2L824.5 257.7Z" fill="#9eb3be" stroke="#9eb3be"></path><path d="M899.8 313.3L824.5 257.7L900 339.3Z" fill="#8da2ab" stroke="#8da2ab"></path><path d="M182.8 0L79.5 0L107.5 3.5Z" fill="#83989f" stroke="#83989f"></path><path d="M107.5 3.5L79.5 0L58.5 81.1Z" fill="#a4b8c4" stroke="#a4b8c4"></path><path d="M459.3 -2.5L79.5 0L182.8 0Z" fill="#93a8b1" stroke="#93a8b1"></path><path d="M796.8 522.5L839.5 472.9L786.5 418.8Z" fill="#83989f" stroke="#83989f"></path><path d="M830.5 422.4L866.8 425.8L812.8 395.4Z" fill="#889da5" stroke="#889da5"></path><path d="M900 440.8L839.5 472.9L899.8 516.9Z" fill="#93a8b1" stroke="#93a8b1"></path><path d="M839.5 472.9L866.8 425.8L830.5 422.4Z" fill="#889da5" stroke="#889da5"></path><path d="M0 575.5L29.3 600L50.3 524.9Z" fill="#788d93" stroke="#788d93"></path><path d="M50.3 524.9L29.3 600L94.5 600Z" fill="#83989f" stroke="#83989f"></path><path d="M0 434.9L0 575.5L50.3 524.9Z" fill="#8da2ab" stroke="#8da2ab"></path><path d="M459.3 -2.5L44.3 0L79.5 0Z" fill="#a4b8c4" stroke="#a4b8c4"></path><path d="M79.5 0L44.3 0L58.5 81.1Z" fill="#83989f" stroke="#83989f"></path><path d="M900 339.3L824.5 257.7L812.8 395.4Z" fill="#93a8b1" stroke="#93a8b1"></path><path d="M856.8 229.7L900 206.2L849.8 210.2Z" fill="#a4b8c4" stroke="#a4b8c4"></path><path d="M900 378.4L900 339.3L812.8 395.4Z" fill="#7d9399" stroke="#7d9399"></path><path d="M866.8 425.8L900 378.4L812.8 395.4Z" fill="#83989f" stroke="#83989f"></path><path d="M900 440.8L900 378.4L866.8 425.8Z" fill="#7d9399" stroke="#7d9399"></path><path d="M900 339.3L900 256.7L899.8 313.3Z" fill="#99adb8" stroke="#99adb8"></path><path d="M899.8 313.3L900 256.7L824.5 257.7Z" fill="#73888d" stroke="#73888d"></path><path d="M849.8 210.2L900 154.6L814.8 158.6Z" fill="#83989f" stroke="#83989f"></path><path d="M794.8 103.5L853.8 77.1L771.5 60.5Z" fill="#889da5" stroke="#889da5"></path><path d="M0 575.5L0 600L29.3 600Z" fill="#788d93" stroke="#788d93"></path><path d="M44.3 0L1.3 24.5L58.5 81.1Z" fill="#99adb8" stroke="#99adb8"></path><path d="M900 256.7L900 206.2L856.8 229.7Z" fill="#8da2ab" stroke="#8da2ab"></path><path d="M771.5 60.5L822.8 0L743.3 24.5Z" fill="#a4b8c4" stroke="#a4b8c4"></path><path d="M900 109.1L853.8 77.1L814.8 158.6Z" fill="#93a8b1" stroke="#93a8b1"></path><path d="M899.8 516.9L839.5 472.9L796.8 522.5Z" fill="#99adb8" stroke="#99adb8"></path><path d="M839.5 472.9L900 440.8L866.8 425.8Z" fill="#99adb8" stroke="#99adb8"></path><path d="M44.3 0L0 13.5L1.3 24.5Z" fill="#99adb8" stroke="#99adb8"></path><path d="M1.3 24.5L0 13.5L0 141.1Z" fill="#8da2ab" stroke="#8da2ab"></path><path d="M900 206.2L900 154.6L849.8 210.2Z" fill="#8da2ab" stroke="#8da2ab"></path><path d="M459.3 -2.5L0 0L44.3 0Z" fill="#889da5" stroke="#889da5"></path><path d="M44.3 0L0 0L0 13.5Z" fill="#a4b8c4" stroke="#a4b8c4"></path><path d="M900 0L822.8 0L853.8 77.1Z" fill="#788d93" stroke="#788d93"></path><path d="M853.8 77.1L822.8 0L771.5 60.5Z" fill="#9eb3be" stroke="#9eb3be"></path><path d="M728.5 0L900 -5.5L686 0Z" fill="#99adb8" stroke="#99adb8"></path><path d="M742.5 600L849.8 600L796.8 522.5Z" fill="#8da2ab" stroke="#8da2ab"></path><path d="M900 550.9L899.8 516.9L796.8 522.5Z" fill="#788d93" stroke="#788d93"></path><path d="M900 154.6L900 109.1L814.8 158.6Z" fill="#889da5" stroke="#889da5"></path><path d="M849.8 600L900 550.9L796.8 522.5Z" fill="#788d93" stroke="#788d93"></path><path d="M899.8 516.9L900 550.9L900 440.8Z" fill="#9eb3be" stroke="#9eb3be"></path><path d="M849.8 600L900 567.5L900 550.9Z" fill="#99adb8" stroke="#99adb8"></path><path d="M849.8 600L900 600L900 567.5Z" fill="#a4b8c4" stroke="#a4b8c4"></path><path d="M900 109.1L900 0L853.8 77.1Z" fill="#889da5" stroke="#889da5"></path><path d="M822.8 0L900 -5.5L728.5 0Z" fill="#93a8b1" stroke="#93a8b1"></path><path d="M900 0L900 -5.5L822.8 0Z" fill="#889da5" stroke="#889da5"></path><path d="M459.3 -2.5L900 -5.5L0 0Z" fill="#6e8387" stroke="#6e8387"></path></g></svg>