<svg width="600" height="600" viewBox="0 0 2400 2400" fill="none" xmlns="http://www.w3.org/2000/svg">
    <g clip-path="url(#clip0_1_3)">
        <path d="M1223.95 874.422L1200 888.274L1176.05 874.422L977.197 989.244V1218.81L1001.15 1232.66V1260.36L1200 1375.1L1398.85 1260.28V1232.58L1422.8 1218.72V989.244L1223.95 874.422ZM1013.16 1010.02L1200 902.126L1386.84 1010.02V1225.73L1200 1333.63L1013.16 1225.73V1010.02ZM989.214 1211.88V996.171L1176.05 888.274L1188.07 895.2L1001.15 1003.1V1218.81L989.214 1211.88ZM1200 1361.25L1013.16 1253.35V1239.5L1200 1347.4L1386.84 1239.5V1253.35L1200 1361.25ZM1410.79 1211.88L1398.77 1218.81V1003.1L1211.93 895.2L1223.95 888.274L1410.79 996.171V1211.88Z" fill="black"/>
        <path d="M1258 1212.74L1200.17 1036.09L1142.6 1212.74V1212.49C1141.55 1215.11 1140.1 1217.26 1138.26 1218.91C1136.41 1220.57 1134.17 1221.4 1131.54 1221.4C1130.15 1221.4 1128.8 1221.28 1127.49 1221.03C1126.17 1220.76 1124.81 1220.45 1123.4 1220.09H1123.66C1113.68 1216.94 1110 1211.34 1112.63 1203.29L1172.57 1021.11C1173.45 1018.31 1174.98 1015.95 1177.17 1014.03C1179.36 1012.09 1181.94 1010.94 1184.91 1010.6C1187.89 1010.07 1190.78 1009.68 1193.6 1009.43C1196.4 1009.16 1198.59 1009.03 1200.17 1009.03C1201.73 1009.03 1203.92 1009.16 1206.74 1009.43C1209.54 1009.68 1212.43 1009.98 1215.4 1010.34C1217.86 1010.69 1220.27 1012 1222.63 1014.29C1224.99 1016.55 1226.79 1018.83 1228.03 1021.11C1237.84 1051.25 1247.78 1081.61 1257.86 1112.2C1267.93 1142.77 1277.88 1173.13 1287.69 1203.29C1290.14 1211.34 1286.47 1216.94 1276.66 1220.09C1275.25 1220.45 1273.97 1220.76 1272.83 1221.03C1271.7 1221.28 1270.44 1221.4 1269.03 1221.4C1266.57 1221.4 1264.33 1220.57 1262.31 1218.91C1260.31 1217.26 1258.88 1215.11 1258 1212.49V1212.74ZM1219.89 1155.97C1219.89 1161.57 1217.91 1166.34 1213.97 1170.29C1210.03 1174.23 1205.25 1176.2 1199.63 1176.2C1194.03 1176.2 1189.3 1174.23 1185.43 1170.29C1181.58 1166.34 1179.66 1161.57 1179.66 1155.97C1179.66 1150.35 1181.58 1145.57 1185.43 1141.63C1189.3 1137.69 1194.03 1135.71 1199.63 1135.71C1205.25 1135.71 1210.03 1137.69 1213.97 1141.63C1217.91 1145.57 1219.89 1150.35 1219.89 1155.97Z" fill="black"/>
    </g>
    <defs>
        <clipPath id="clip0_1_3">
            <rect width="2400" height="2400" fill="white"/>
        </clipPath>
    </defs>
</svg>
